<svg width="100" height="100" viewBox="0 0 100 100" fill="none" xmlns="http://www.w3.org/2000/svg">
<path fill-rule="evenodd" clip-rule="evenodd" d="M71.0716 78.8571H26.0737C23.6518 78.8571 21.8633 76.4674 22.7768 74.2697C27.0151 64.1074 36.9722 58.2857 48.5708 58.2857C60.1728 58.2857 70.1299 64.1074 74.3685 74.2697C75.2819 76.4674 73.4934 78.8571 71.0716 78.8571ZM34.5714 37.7143C34.5714 30.1508 40.8536 23.9999 48.5708 23.9999C56.2916 23.9999 62.5702 30.1508 62.5702 37.7143C62.5702 45.2777 56.2916 51.4285 48.5708 51.4285C40.8536 51.4285 34.5714 45.2777 34.5714 37.7143ZM82.7051 77.6091C80.1608 66.0925 72.2019 57.5931 61.7268 53.736C67.2776 49.3577 70.5151 42.2774 69.3251 34.5254C67.9462 25.5323 60.3094 18.3359 51.0908 17.2867C38.3654 15.8365 27.5716 25.5393 27.5716 37.7143C27.5716 44.1943 30.6374 49.968 35.4182 53.736C24.9397 57.5931 16.9845 66.0925 14.4366 77.6091C13.5126 81.7954 16.9565 85.7143 21.3278 85.7143H75.8139C80.1888 85.7143 83.6325 81.7954 82.7051 77.6091Z" fill="white"/>
</svg>
