<svg width="51" height="60" viewBox="0 0 51 60" fill="none" xmlns="http://www.w3.org/2000/svg">
<g clip-path="url(#clip0_1584_3)">
<path d="M49.9311 46.7582C49.0155 48.8544 47.9316 50.784 46.6759 52.558C44.9642 54.9765 43.5627 56.6505 42.4826 57.5801C40.8082 59.106 39.0143 59.8874 37.0933 59.9319C35.7142 59.9319 34.0511 59.543 32.1151 58.7541C30.1728 57.969 28.3879 57.5801 26.7558 57.5801C25.044 57.5801 23.2083 57.969 21.2446 58.7541C19.278 59.543 17.6938 59.9541 16.4825 59.9948C14.6404 60.0726 12.8042 59.2689 10.9714 57.5801C9.8016 56.569 8.33842 54.8357 6.5856 52.3802C4.70496 49.7581 3.15882 46.7175 1.94754 43.2509C0.650301 39.5066 0 35.8808 0 32.3705C0 28.3495 0.876785 24.8815 2.63297 21.9753C4.01318 19.6409 5.84934 17.7995 8.14744 16.4476C10.4455 15.0958 12.9286 14.407 15.6027 14.3629C17.0659 14.3629 18.9847 14.8114 21.3691 15.6929C23.7468 16.5773 25.2735 17.0258 25.9429 17.0258C26.4433 17.0258 28.1393 16.5014 31.0145 15.4558C33.7334 14.4862 36.0281 14.0848 37.908 14.2429C43.0021 14.6503 46.8291 16.6402 49.3743 20.2253C44.8184 22.9608 42.5648 26.7921 42.6096 31.7072C42.6508 35.5356 44.0523 38.7214 46.8067 41.251C48.055 42.425 49.449 43.3324 51 43.9768C50.6637 44.9434 50.3086 45.8693 49.9311 46.7582ZM38.2481 1.20034C38.2481 4.20102 37.1419 7.00276 34.9368 9.59601C32.2758 12.6789 29.0572 14.4603 25.5669 14.1792C25.5224 13.8192 25.4966 13.4403 25.4966 13.0422C25.4966 10.1615 26.7621 7.07868 29.0094 4.55801C30.1313 3.28176 31.5583 2.22057 33.2887 1.37404C35.0153 0.540137 36.6486 0.0789725 38.1846 0C38.2295 0.401145 38.2481 0.802353 38.2481 1.20034Z" fill="white"/>
</g>
<defs>
<clipPath id="clip0_1584_3">
<rect width="51" height="60" fill="white"/>
</clipPath>
</defs>
</svg>
