<svg width="324" height="338" viewBox="0 0 324 338" fill="none" xmlns="http://www.w3.org/2000/svg">
<rect x="85.8125" y="305.842" width="70.9749" height="24.8412" rx="12.4206" transform="rotate(5.34784 85.8125 305.842)" fill="#181829"/>
<rect x="173.727" y="311.018" width="70.9749" height="24.8412" rx="12.4206" transform="rotate(-20.641 173.727 311.018)" fill="#181829"/>
<path d="M49 162.096C43.1483 156.536 41.0892 152.481 38.7528 145.948C37.2817 141.835 41.6028 137.873 45.6927 139.408C116.926 166.134 146.698 135.897 164.145 114.011C182.44 91.0606 155.983 44.1012 175.501 17.1307C196.423 -11.7808 247.5 1.04492 258.5 18.0451C275.142 43.7649 284.802 44.1052 294.738 44.1052C304.675 44.1052 308.579 59.01 293.319 57.5866C254.186 53.9363 234.902 78.2877 236.539 89.8841C240.797 120.048 332 269.801 157.402 288.61C47.3344 300.466 12.2382 224.559 2.27542 177.247C1.32277 172.723 6.71202 169.809 10.9284 171.706C16.3775 174.157 19.6976 173.284 29 179.596C21.1265 170.775 13.7958 159.963 7.98495 150.043C5.46546 145.743 10.1711 141.398 14.4326 143.983C26.2672 151.163 40.555 159.394 49 162.096Z" fill="#181829"/>
<path d="M245.415 38.8818C239.186 27.4932 223.916 27.8866 217.637 38.8324C217.238 39.527 217.443 40.3982 218.068 40.8984C218.844 41.5189 219.979 41.3472 220.611 40.5805C227.205 32.5735 236.617 32.5329 242.447 40.4588C243.043 41.2691 244.199 41.4849 244.984 40.8565C245.581 40.3793 245.782 39.5521 245.415 38.8818Z" fill="white"/>
<g filter="url(#filter0_b_1873_19)">
<path d="M273.883 106.736C272.404 122.961 258.051 134.914 241.826 133.435C225.601 131.956 213.648 117.603 215.127 101.378C216.606 85.153 230.959 73.1993 247.184 74.6787C263.409 76.1581 275.363 90.5105 273.883 106.736Z" fill="#3CFFDC" fill-opacity="0.1"/>
<path d="M241.826 133.435C258.051 134.914 272.404 122.961 273.883 106.736C275.363 90.5105 263.409 76.1581 247.184 74.6787C230.959 73.1993 216.606 85.153 215.127 101.378C213.648 117.603 225.601 131.956 241.826 133.435ZM241.826 133.435L236.378 193.187" stroke="black" stroke-width="10" stroke-linecap="round"/>
</g>
<path d="M258.999 148C243.999 143 222.5 148.5 168.499 162.5L140.5 244.5C207.999 247 234.037 239.334 248.499 229C258.233 222.044 258.999 204.5 245.999 203C277.271 199.213 265.999 174 254.558 173.715C269.388 171.408 268.999 151.333 258.999 148Z" fill="#181829"/>
<path d="M187.129 158.315C185.798 158.681 185.016 160.058 185.382 161.389C185.749 162.72 187.125 163.502 188.456 163.135L187.129 158.315ZM265.501 155L267.941 154.457L265.501 155ZM242.135 173.808C240.785 174.099 239.926 175.428 240.216 176.778C240.506 178.128 241.836 178.987 243.186 178.697L242.135 173.808ZM265.5 183.5L267.941 182.958L267.941 182.958L265.5 183.5ZM256.133 214.742L253.633 214.742L256.133 214.742ZM154.587 242.002C153.207 241.954 152.05 243.033 152.002 244.413C151.953 245.793 153.033 246.95 154.413 246.999L154.587 242.002ZM235.01 202.549C233.656 202.819 232.778 204.136 233.049 205.49C233.319 206.844 234.636 207.722 235.99 207.451L235.01 202.549ZM188.456 163.135C205.882 158.337 224.053 152.48 238.504 150.014C245.737 148.78 251.697 148.465 255.986 149.407C258.098 149.87 259.673 150.612 260.794 151.58C261.884 152.522 262.669 153.783 263.061 155.542L267.941 154.457C267.332 151.717 266.017 149.485 264.062 147.796C262.138 146.134 259.724 145.108 257.058 144.523C251.792 143.366 245.043 143.826 237.663 145.086C222.884 147.607 204.202 153.613 187.129 158.315L188.456 163.135ZM263.061 155.542C263.883 159.242 263.507 162.229 262.182 164.679C260.841 167.159 258.364 169.389 254.436 171.238L256.564 175.762C261.136 173.611 264.584 170.749 266.58 167.057C268.593 163.336 268.967 159.072 267.941 154.457L263.061 155.542ZM255.109 171.031C254.951 171.056 251.613 171.773 248.504 172.44C246.908 172.783 245.315 173.125 244.122 173.381C243.525 173.509 243.029 173.616 242.681 173.691C242.507 173.728 242.371 173.758 242.278 173.778C242.231 173.788 242.195 173.795 242.171 173.801C242.159 173.803 242.15 173.805 242.144 173.806C242.141 173.807 242.139 173.808 242.137 173.808C242.136 173.808 242.136 173.808 242.135 173.808C242.135 173.808 242.135 173.808 242.135 173.808C242.135 173.808 242.135 173.808 242.66 176.253C243.186 178.697 243.186 178.697 243.186 178.697C243.186 178.697 243.186 178.697 243.186 178.697C243.187 178.696 243.187 178.696 243.188 178.696C243.189 178.696 243.192 178.695 243.195 178.695C243.201 178.693 243.21 178.691 243.222 178.689C243.246 178.684 243.282 178.676 243.328 178.666C243.421 178.646 243.558 178.617 243.732 178.579C244.079 178.505 244.576 178.398 245.172 178.27C246.365 178.013 247.957 177.671 249.554 177.329C252.831 176.625 255.913 175.966 255.891 175.969L255.109 171.031ZM255.5 176C257.647 176 261.746 178.128 263.059 184.042L267.941 182.958C266.202 175.13 260.353 171 255.5 171V176ZM263.059 184.042C263.976 188.17 263.372 190.965 261.057 193.331C258.494 195.95 253.558 198.347 244.877 200.579L246.123 205.421C254.942 203.153 261.047 200.49 264.63 196.828C268.461 192.913 269.106 188.209 267.941 182.958L263.059 184.042ZM253.633 214.742C253.633 218.518 250.696 226.005 236.549 232.309C222.393 238.618 197.425 243.496 154.587 242.002L154.413 246.999C197.575 248.504 223.423 243.633 238.584 236.877C253.754 230.116 258.633 221.224 258.633 214.742L253.633 214.742ZM245.287 205.491C248.837 205.795 250.741 206.685 251.828 207.888C252.923 209.101 253.633 211.124 253.633 214.742L258.633 214.742C258.633 210.617 257.849 207.096 255.539 204.537C253.22 201.969 249.808 200.86 245.713 200.509L245.287 205.491ZM245.01 200.549L235.01 202.549L235.99 207.451L245.99 205.451L245.01 200.549Z" fill="#43435A"/>
<defs>
<filter id="filter0_b_1873_19" x="208.003" y="67.5546" width="73.0039" height="132.633" filterUnits="userSpaceOnUse" color-interpolation-filters="sRGB">
<feFlood flood-opacity="0" result="BackgroundImageFix"/>
<feGaussianBlur in="BackgroundImageFix" stdDeviation="1"/>
<feComposite in2="SourceAlpha" operator="in" result="effect1_backgroundBlur_1873_19"/>
<feBlend mode="normal" in="SourceGraphic" in2="effect1_backgroundBlur_1873_19" result="shape"/>
</filter>
</defs>
</svg>
