<svg width="360" height="342" viewBox="0 0 360 342" fill="none" xmlns="http://www.w3.org/2000/svg">
<rect x="294.728" y="282.508" width="70.975" height="24.8412" rx="12.4206" transform="rotate(-70.228 294.728 282.508)" fill="#181829"/>
<path d="M77.2817 205.062C70.5839 200.558 67.8764 196.903 64.4821 190.852C62.3448 187.043 65.9438 182.415 70.2325 183.245C144.928 197.702 169.233 162.919 182.781 138.427C196.987 112.743 163.06 70.8608 177.801 41.0099C193.603 9.01075 246.104 13.128 259.788 28.0527C280.491 50.6327 290.072 49.3553 299.869 47.6962C309.666 46.0371 316.003 60.0808 300.721 61.2253C261.527 64.1605 246.58 91.39 250.13 102.55C259.366 131.58 374.293 264.002 205.286 311.7C98.7437 341.768 51.4657 272.787 33.7428 227.802C32.0481 223.501 36.8753 219.728 41.3491 220.894C47.131 222.401 50.2586 220.986 60.4845 225.656C51.2486 218.274 42.2155 208.837 34.83 200.027C31.6277 196.208 35.5419 191.139 40.1752 192.976C53.0426 198.079 68.504 203.808 77.2817 205.062Z" fill="#181829"/>
<path d="M222.489 38.3806L238.39 42.4423L239.582 59.3153L224.367 66.4612L216.036 54.1798L226.866 46.2604L234.118 53.1462L228.134 59.7378L225.077 53.663" stroke="white" stroke-width="3" stroke-linecap="round" stroke-linejoin="round"/>
</svg>
