<svg width="72" height="72" viewBox="0 0 72 72" fill="none" xmlns="http://www.w3.org/2000/svg">
<path d="M24.2336 3H7C4.79086 3 3 4.79086 3 7V31.7103C3 33.9194 4.79086 35.7103 7 35.7103H24.2336C26.4428 35.7103 28.2336 33.9194 28.2336 31.7103V7C28.2336 4.79086 26.4428 3 24.2336 3Z" stroke="white" stroke-width="6"/>
<path d="M64.4211 3H47.1875C44.9784 3 43.1875 4.79086 43.1875 7V16.757C43.1875 18.9661 44.9784 20.757 47.1875 20.757H64.4211C66.6303 20.757 68.4211 18.9662 68.4211 16.757V7C68.4211 4.79086 66.6303 3 64.4211 3Z" stroke="white" stroke-width="6"/>
<path d="M64.4211 35.7102H47.1875C44.9784 35.7102 43.1875 37.5011 43.1875 39.7102V64.4205C43.1875 66.6296 44.9784 68.4205 47.1875 68.4205H64.4211C66.6303 68.4205 68.4211 66.6296 68.4211 64.4205V39.7102C68.4211 37.5011 66.6303 35.7102 64.4211 35.7102Z" stroke="white" stroke-width="6"/>
<path d="M24.2336 50.6636H7C4.79086 50.6636 3 52.4544 3 54.6636V64.4206C3 66.6297 4.79086 68.4206 7 68.4206H24.2336C26.4428 68.4206 28.2336 66.6297 28.2336 64.4206V54.6636C28.2336 52.4544 26.4428 50.6636 24.2336 50.6636Z" stroke="white" stroke-width="6"/>
</svg>
