<?xml version="1.0" encoding="utf-8"?>
<svg fill="#000000" width="800px" height="800px" viewBox="0 0 24 24" xmlns="http://www.w3.org/2000/svg">
  <path fill-rule="evenodd" d="M8.17070571,4 L8.23766364,3.82776208 C8.69415347,2.75341388 9.75909211,2 11,2 C12.3062188,2 13.4174579,2.83480763 13.8292943,4 L17,4 C18.6568542,4 20,5.34314575 20,7 L20,10.1707057 C21.1651924,10.5825421 22,11.6937812 22,13 C22,14.2930037 21.1793875,15.4032205 20,15.8231481 L20,19 C20,20.6568542 18.6568542,22 17,22 L14,22 C13.4871642,22 13.0644928,21.6139598 13.0067277,21.1166211 L12.9945143,20.8507377 C12.9181651,19.8158778 12.0543618,19 11,19 C9.8954305,19 9,19.8954305 9,21 C9,21.5522847 8.55228475,22 8,22 L5,22 C3.34314575,22 2,20.6568542 2,19 L2,16 C2,15.4871642 2.38604019,15.0644928 2.88337887,15.0067277 L3.14926234,14.9945143 C4.18412221,14.9181651 5,14.0543618 5,13 C5,11.8954305 4.1045695,11 3,11 C2.44771525,11 2,10.5522847 2,10 L2,7 C2,5.34314575 3.34314575,4 5,4 L8.17070571,4 Z M17,20 C17.5522847,20 18,19.5522847 18,19 L18,15 C18,14.4620075 18.425643,14.0204338 18.9632725,14.0006747 L19.075685,13.9972247 C19.5945268,13.958946 20,13.5243235 20,13 C20,12.4871642 19.6139598,12.0644928 19.1166211,12.0067277 L18.8833789,11.9932723 C18.3860402,11.9355072 18,11.5128358 18,11 L18,7 C18,6.44771525 17.5522847,6 17,6 L13,6 C12.4871642,6 12.0644928,5.61395981 12.0067277,5.11662113 L11.9932723,4.88337887 C11.9355072,4.38604019 11.5128358,4 11,4 C10.4871642,4 10.0644928,4.38604019 10.0067277,4.88337887 L9.99327227,5.11662113 C9.93550716,5.61395981 9.51283584,6 9,6 L5,6 C4.44771525,6 4,6.44771525 4,7 L4,9.12601749 C5.72522721,9.57006028 7,11.1361606 7,13 C7,14.8638394 5.72522721,16.4299397 4,16.8739825 L4,19 C4,19.5522847 4.44771525,20 5,20 L7.12601749,20 C7.57006028,18.2747728 9.13616057,17 11,17 C12.7948083,17 14.3135239,18.1820938 14.8200688,19.8102037 L14.8739825,20 L17,20 Z"/>
</svg>