<svg width="1414" height="1268" viewBox="0 0 1414 1268" fill="none" xmlns="http://www.w3.org/2000/svg">
<path d="M682.187 1.23871C597.337 6.32149 517.631 35.3054 450.089 85.7096C354.709 156.808 292.856 264.272 279.784 381.721C267.256 493.784 297.819 603.85 366.026 692.618C387.148 720.028 415.35 748.468 442.403 769.464C479.079 798.025 520.717 820.776 564.474 836.266C571.071 838.566 572.281 838.808 577.788 838.868C588.198 838.929 594.371 835.661 598.184 827.916L600.181 823.802L600 781.203C599.939 757.725 599.757 738.484 599.636 738.302C599.515 738.181 595.884 738.665 591.587 739.331C577.546 741.57 565.563 742.538 552.067 742.598C533.608 742.598 520.778 740.843 507.282 736.366C493.362 731.828 483.194 725.716 473.632 716.156C465.704 708.229 461.588 701.875 455.839 688.563C449.061 672.891 440.043 657.462 429.875 644.392C423.46 636.041 417.469 630.535 409.48 625.634C398.344 618.675 391.082 611.051 391.082 606.15C391.082 603.79 393.2 601.672 397.013 600.159C400.099 598.889 401.491 598.768 410.751 598.707C422.795 598.707 426.668 599.554 436.775 604.395C451.966 611.717 466.733 625.997 478.232 644.392C490.638 664.299 507.04 678.216 525.438 684.509C534.395 687.595 541.839 688.745 552.672 688.805C567.56 688.866 582.267 685.961 596.247 680.274L601.997 677.914L603.57 669.987C607.444 650.927 615.069 635.013 625.539 624.242C627.718 622.003 629.171 620.188 628.747 620.188C626.508 620.188 601.27 616.255 593.524 614.682C566.41 609.236 542.747 601.128 523.985 590.78C471.453 561.796 442.887 513.873 435.564 442.291C434.051 427.708 433.688 400.418 434.899 389.345C437.138 368.53 442.585 349.469 451.239 331.861C458.018 318.126 467.096 304.511 475.448 295.374C477.747 292.833 477.808 292.651 477.203 290.533C476.84 289.323 475.69 285.451 474.6 281.941C468.972 263.062 467.883 238.738 471.635 216.349C474.056 202.129 480.531 180.346 482.892 178.591C484.647 177.321 496.872 177.442 505.163 178.833C529.795 182.948 559.572 196.079 592.798 217.499L600.544 222.521L609.743 220.161C632.681 214.352 656.889 210.601 683.397 208.725C694.896 207.938 732.238 208.422 743.918 209.572C765.585 211.629 787.675 215.381 806.436 220.161L815.514 222.461L824.653 216.591C863.931 191.359 898.428 177.744 923.362 177.623C933.651 177.563 933.409 177.502 935.648 183.432C942.487 201.585 945.937 219.072 946.481 238.375C947.026 256.467 945.089 271.413 940.308 286.056L938.25 292.47L942.366 297.31C964.032 322.966 976.621 351.829 980.857 385.412C982.007 394.73 982.431 414.517 981.704 427.466C976.802 516.294 940.792 572.567 871.072 600.522C847.711 609.901 825.319 615.166 788.825 619.946L786.222 620.248L790.398 624.726C804.197 639.248 812.972 662.06 814.485 687.353C814.727 690.863 814.909 723.114 814.97 759.057L815.03 824.407L816.725 827.856C820.235 835.056 827.497 839.231 836.454 839.231C841.599 839.231 845.23 838.263 857.213 833.786C895.281 819.505 932.561 799.114 964.638 774.971C1059.66 703.63 1121.14 596.408 1134.28 479.262C1136.21 461.775 1136.82 449.673 1136.88 430.189C1136.88 410.947 1136.27 399.692 1134.22 381.721C1120.18 255.922 1050.15 141.802 943.939 71.6714C872.767 24.6558 790.398 0.210018 704.882 0.694092C696.893 0.694092 686.665 0.996671 682.187 1.23871Z" fill="black" style="fill:black;fill-opacity:1;"/>
<path d="M142.946 885.642C127.695 887.094 120.977 888.123 111.475 890.483C53.6173 904.521 18.4547 946.272 5.92686 1015.92C2.47717 1035.04 1.32727 1047.99 0.903629 1073.1C0.237899 1114.67 3.99019 1143.53 13.8551 1172.33C17.2443 1182.2 25.4146 1198.96 30.5588 1206.7C47.4442 1231.76 69.2922 1248.03 99.371 1257.96C120.432 1264.91 141.675 1267.82 170.786 1267.82C197.899 1267.82 218.597 1264.55 241.474 1256.68C254.546 1252.21 272.582 1243.61 276.394 1240.04L277.908 1238.65V1145.41V1052.16L276.394 1050.71L274.942 1049.2H213.332C165.883 1049.26 151.479 1049.38 150.753 1049.99C148.453 1051.74 148.393 1052.59 148.393 1083.93V1114.49L149.845 1116.18L151.298 1117.88L175.748 1118.18L200.138 1118.48L200.32 1154.3C200.441 1188.37 200.38 1190.19 199.351 1190.73C196.689 1192.18 182.043 1193.63 166.247 1194.06C139.012 1194.72 121.28 1188.67 106.876 1173.73C93.44 1159.81 85.3302 1139.24 81.4569 1109.1C80.1859 1099 79.6412 1067.47 80.5491 1056.16C84.3619 1009.75 98.7053 982.094 125.879 968.479C140.041 961.4 157.471 958.556 182.89 959.221C204.738 959.826 219.323 962.005 235.543 967.027C240.021 968.419 244.5 969.508 245.408 969.508C248.01 969.508 249.886 967.269 250.734 963.336C251.097 961.46 254.123 948.511 257.451 934.534C260.78 920.556 263.504 908.333 263.443 907.365C263.443 904.945 261.385 903.008 255.817 900.346C240.506 892.903 216.903 887.941 187.126 885.824C179.138 885.279 147.969 885.098 142.946 885.642Z" fill="black" style="fill:black;fill-opacity:1;"/>
<path d="M626.204 900.648L624.691 902.101V1079.7V1257.29L626.144 1258.98L627.596 1260.68H663.364H699.072L700.463 1259.29L701.855 1257.89L702.158 1181.53L702.461 1105.17H754.388H806.314L806.254 1180.69C806.254 1263.82 806.012 1258.92 809.946 1260.32C811.277 1260.8 822.534 1260.98 845.713 1260.98C881.905 1260.98 882.087 1260.98 883.721 1258.02C884.144 1257.17 884.326 1199.99 884.326 1079.57V902.343L882.813 900.709L881.36 899.136H845.774C806.314 899.136 808.251 898.954 806.859 903.069C806.314 904.702 806.193 921.645 806.375 969.508L806.557 1033.77L754.388 1033.95L702.158 1034.07V968.116V902.101L700.645 900.648L699.193 899.136H663.425H627.657L626.204 900.648Z" fill="black" style="fill:black;fill-opacity:1;"/>
<path d="M1179.97 900.709L1178.46 902.343V1079.82V1257.29L1179.91 1258.98L1181.36 1260.68L1206.05 1260.86C1223.97 1260.98 1231.23 1260.8 1232.5 1260.32C1234.92 1259.29 1235.89 1257.05 1236.98 1249.3C1237.53 1245.61 1238.07 1242.4 1238.13 1242.34C1238.19 1242.22 1240.79 1243.92 1243.94 1246.16C1250.78 1251.12 1264.22 1257.83 1272.87 1260.62C1295.63 1268 1321.47 1269.69 1343.74 1265.22C1387.37 1256.44 1408.92 1220.92 1412.61 1151.76C1414.97 1107.83 1410.55 1076.06 1398.81 1051.92C1390.28 1034.43 1377.09 1021.36 1360.62 1014.1C1354.33 1011.32 1344.34 1008.54 1336.36 1007.39C1328.61 1006.24 1310.21 1006.42 1301.92 1007.69C1287.46 1009.87 1275.53 1013.5 1263.43 1019.49L1256.53 1022.88V962.912V902.887L1254.96 901.011L1253.38 899.136H1217.43H1181.42L1179.97 900.709ZM1305.85 1071.28C1324.49 1075.22 1334.12 1091.86 1335.75 1122.72C1336.42 1135.67 1335.75 1156.66 1334.3 1167.07C1331.21 1189.1 1324.61 1198.9 1310.39 1202.71C1305.43 1204.04 1289.21 1204.16 1282.86 1202.95C1273.84 1201.26 1264.34 1197.99 1258.04 1194.54L1255.02 1192.91V1137.24V1081.57L1258.95 1079.63C1266.76 1075.7 1277.65 1072.19 1285.4 1071.04C1291.09 1070.2 1301.25 1070.32 1305.85 1071.28Z" fill="black" style="fill:black;fill-opacity:1;"/>
<path d="M346.598 907.909C338.005 909.785 330.924 913.839 324.387 920.798C307.744 938.406 308.773 965.877 326.748 982.638C334.494 989.899 345.207 994.135 355.677 994.135C381.216 994.135 401.733 970.658 398.344 945.244C396.952 934.534 393.502 927.635 385.634 919.648C381.337 915.292 379.582 913.96 374.741 911.6C371.594 910.088 367.115 908.393 364.755 907.909C359.61 906.82 351.501 906.82 346.598 907.909Z" fill="black" style="fill:black;fill-opacity:1;"/>
<path d="M460.801 944.276L459.47 945.183V980.521V1015.92L458.138 1016.22C445.853 1019.06 423.642 1024.57 422.371 1025.12C418.86 1026.51 418.921 1026.21 418.921 1051.98V1075.64L420.495 1077.27L422.129 1078.85H440.769H459.47V1135.97C459.47 1202.53 459.53 1203.5 464.735 1219.53C471.271 1239.68 486.039 1254.32 506.979 1261.47C529.371 1269.09 563.747 1268.85 588.863 1260.92C592.616 1259.71 592.616 1259.53 592.616 1231.69V1206.52L590.861 1204.59L589.166 1202.65L578.333 1203.32C566.35 1204.1 559.511 1203.68 553.398 1201.8C543.231 1198.6 537.481 1191.76 536.271 1181.23C535.968 1178.63 535.787 1154.67 535.847 1127.86L536.029 1079.15L562.113 1078.97L588.198 1078.85L589.832 1077.27L591.405 1075.64V1046.42V1017.19L589.953 1015.49L588.5 1013.8L562.113 1013.62L535.726 1013.44V979.31V945.183L534.395 944.276C533.184 943.428 528.706 943.307 497.598 943.307C466.49 943.307 462.012 943.428 460.801 944.276Z" fill="black" style="fill:black;fill-opacity:1;"/>
<path d="M319.848 1014.1C319.061 1014.41 317.911 1015.56 317.246 1016.64C316.035 1018.64 316.035 1019.67 316.035 1136.51C316.035 1266.67 315.733 1257.05 319.848 1259.47C321.724 1260.62 323.116 1260.68 355.374 1260.68C386.966 1260.68 389.144 1260.62 390.718 1259.59C394.349 1257.23 394.107 1265.04 394.107 1136.03V1017.73L392.352 1015.8L390.597 1013.8L355.858 1013.68C336.007 1013.62 320.574 1013.8 319.848 1014.1Z" fill="black" style="fill:black;fill-opacity:1;"/>
<path d="M919.308 1015.86L917.311 1017.61V1105.9C917.311 1187.58 917.371 1194.66 918.4 1201.26C921.547 1222.13 927.296 1234.96 938.493 1246.16C950.234 1257.9 964.88 1264.07 987.515 1266.79C996.895 1267.88 1016.81 1268.06 1024.13 1267.09C1045.13 1264.25 1065.1 1257.35 1084.47 1246.16L1088.22 1243.98L1088.58 1246.28C1090.4 1257.17 1090.7 1258.26 1092.28 1259.65L1093.85 1261.04L1117.45 1260.86L1141.06 1260.68L1142.51 1258.98L1143.96 1257.29V1138.15C1143.96 1063.78 1143.72 1018.46 1143.36 1017.49C1142.08 1014.1 1142.21 1014.1 1105.23 1014.1C1068.37 1014.1 1068.73 1014.04 1067.22 1017.43C1066.68 1018.64 1066.49 1039.7 1066.49 1105.47V1191.94L1062.74 1194.12C1051.06 1201.02 1036.6 1204.59 1022.98 1203.92C1005.97 1203.13 998.893 1197.14 996.29 1181.35C995.927 1179.17 995.685 1146.5 995.685 1098.33C995.685 1010.9 995.927 1016.16 991.993 1014.77C990.662 1014.28 979.284 1014.1 955.681 1014.1H921.244L919.308 1015.86Z" fill="black" style="fill:black;fill-opacity:1;"/>
</svg>
