<svg width="100" height="100" viewBox="0 0 100 100" fill="none" xmlns="http://www.w3.org/2000/svg">
    <path
        d="M50 1C22.3858 1 0 23.4638 0 51.1742C0 70.9626 11.54 88.1848 28.162 96.3862C32.8444 98.6964 37.8049 94.8762 37.8049 89.6549L37.8049 86.7143C17.9442 89.3275 23.3449 79.1678 16.0278 74.1707C12.5583 71.8013 13.3571 71.2125 13.763 71.0348C16.5505 69.8153 21.117 72.2498 23.6933 76.6097C26.164 80.7909 30.4878 83.0557 37.8049 79.9199C38.3284 77.0479 39.3728 74.6934 41.2892 73.1254C24.3902 71.5575 18.4803 63.0209 18.2927 48.3868C18.2301 43.5087 20.0348 38.8049 23.5192 35.1463C21.9512 32.5331 21.777 26.9582 23.8676 21.7317C28.3972 21.9059 33.2753 24.5192 37.4564 27.1324C47.2783 24.8566 52.7082 24.8751 62.3693 27.1324C67.9443 23.9965 71.2544 21.9059 75.9582 21.7317C78.1156 26.8606 78.223 30.6167 76.6551 35.1463C80.5209 40.0261 81.7073 43.1603 81.7073 49.0836C81.7073 65.8084 72.1254 71.9059 58.5366 73.1254C62.3325 76.0051 62.3913 80.8516 62.2598 89.7337C62.1828 94.9297 67.098 98.6942 71.7551 96.3886C88.3719 88.1618 100 70.9306 100 51.1742C100 23.4638 77.6142 1 50 1Z"
        fill="white" />
</svg>