<svg width="84" height="86" viewBox="0 0 84 86" fill="none" xmlns="http://www.w3.org/2000/svg">
<path d="M65 81C56.1634 81 49 73.8365 49 65C49 56.1635 56.1634 49 65 49C73.8365 49 80.9999 56.1635 80.9999 65C80.9999 73.8365 73.8365 81 65 81Z" stroke="white" stroke-width="5"/>
<path d="M61 66V58C61 56.8954 61.8954 56 63 56C64.1046 56 65 56.8954 65 58V65H70C71.1046 65 72 65.8954 72 67C72 68.1046 71.1046 69 70 69H64C62.3431 69 61 67.6569 61 66Z" fill="white"/>
<path d="M16 86H43C44.6569 86 46 84.6569 46 83C46 81.3431 44.6569 80 43 80H18C13.5817 80 10 76.4183 10 72V14C10 9.58172 13.5817 6 18 6H60C64.4183 6 68 9.58172 68 14V37C68 38.6569 69.3431 40 71 40C72.6569 40 74 38.6569 74 37V12C74 5.37258 68.6274 0 62 0H16C9.37258 0 4 5.37258 4 12V74C4 80.6274 9.37258 86 16 86Z" fill="white"/>
<rect x="22" y="60" width="18" height="6" rx="3" fill="white"/>
<rect y="60" width="14" height="6" rx="3" fill="white"/>
<rect y="40" width="14" height="6" rx="3" fill="white"/>
<rect y="20" width="14" height="6" rx="3" fill="white"/>
<rect x="22" y="40" width="26" height="6" rx="3" fill="white"/>
<rect x="22" y="20" width="38" height="6" rx="3" fill="white"/>
</svg>
