<svg xmlns="http://www.w3.org/2000/svg" xmlns:xlink="http://www.w3.org/1999/xlink" viewBox="0,0,256,256" width="96px" height="96px" fill-rule="nonzero"><g fill="#ffffff" fill-rule="nonzero" stroke="none" stroke-width="1" stroke-linecap="butt" stroke-linejoin="miter" stroke-miterlimit="10" stroke-dasharray="" stroke-dashoffset="0" font-family="none" font-weight="none" font-size="none" text-anchor="none" style="mix-blend-mode: normal"><g transform="scale(10.66667,10.66667)"><path d="M6.5625,5.01367c-4.10293,0.25319 -7.24977,4.03997 -6.43164,8.35547c0.522,2.755 2.744,4.978 5.5,5.5c3.74715,0.71038 7.08927,-1.57035 8.07227,-4.86914h4.29688v1c0,1.105 0.895,2 2,2c1.105,0 2,-0.895 2,-2v-1c1.105,0 2,-0.895 2,-2c0,-1.105 -0.895,-2 -2,-2h-8.30078c-0.71979,-2.45675 -2.78972,-4.38798 -5.33008,-4.86914c-0.61637,-0.11688 -1.22051,-0.15336 -1.80664,-0.11719zM7,9c1.657,0 3,1.343 3,3c0,1.657 -1.343,3 -3,3c-1.657,0 -3,-1.343 -3,-3c0,-1.657 1.343,-3 3,-3z"></path></g></g></svg>