<svg width="59" height="59" viewBox="0 0 59 59" fill="none" xmlns="http://www.w3.org/2000/svg">
<path d="M32.125 54.0833C38.9134 54.0833 44.4166 48.5801 44.4166 41.7916C44.4166 40.4339 43.316 39.3333 41.9583 39.3333C40.6006 39.3333 39.5 40.4339 39.5 41.7916C39.5 45.8647 36.198 49.1666 32.125 49.1666L22.2917 49.1666C18.2184 49.1666 14.9167 45.8647 14.9167 41.7916L14.9167 17.2082C14.9167 13.135 18.2184 9.83325 22.2917 9.83325L32.125 9.83325C36.198 9.83325 39.5 13.135 39.5 17.2083C39.5 18.566 40.6006 19.6666 41.9583 19.6666C43.316 19.6666 44.4166 18.566 44.4166 17.2083C44.4166 10.4198 38.9134 4.91659 32.125 4.91659L22.2917 4.91659C15.5032 4.91659 9.99999 10.4198 9.99999 17.2082L9.99999 41.7916C9.99999 48.5801 15.5032 54.0832 22.2917 54.0833L32.125 54.0833Z" fill="#dfc8c8"/>
<path d="M29.6666 31.9583C28.3089 31.9583 27.2083 30.8577 27.2083 29.4999C27.2083 28.1422 28.3089 27.0416 29.6666 27.0416L29.6666 31.9583Z" fill="#dfc8c8"/>
<path d="M50.0267 31.9583C49.8079 32.2282 49.5982 32.4901 49.3999 32.7401C48.7964 33.5014 48.2855 34.1698 47.9247 34.649C47.7441 34.8888 47.6007 35.0817 47.5017 35.2158L47.3873 35.3714L47.3566 35.4134L47.3457 35.4283C47.3457 35.4283 47.3445 35.43 49.3333 36.875L47.3457 35.4283C46.5477 36.5267 46.7899 38.0658 47.8883 38.8638C48.9867 39.6618 50.5239 39.4184 51.322 38.3201L51.3289 38.3106L51.3541 38.2762L51.4568 38.1366C51.5476 38.0136 51.6819 37.8329 51.8525 37.6063C52.194 37.1527 52.6795 36.5175 53.2525 35.7949C54.4109 34.3338 55.8782 32.5776 57.2174 31.2383L57.5415 30.9142C58.3226 30.1332 58.3226 28.8668 57.5415 28.0858L57.2174 27.7617C55.8782 26.4224 54.4109 24.6662 53.2525 23.2052C52.6795 22.4824 52.194 21.8472 51.8525 21.3936C51.6819 21.167 51.5476 20.9863 51.4568 20.8634L51.3541 20.7237L51.3289 20.6893L51.3232 20.6815C50.5251 19.5833 48.9867 19.3382 47.8883 20.1362C46.7899 20.9342 46.5464 22.4716 47.3445 23.57L49.3333 22.125C47.3445 23.57 47.3445 23.57 47.3445 23.57L47.3566 23.5865L47.3873 23.6285L47.5017 23.7841C47.6007 23.9183 47.7441 24.1111 47.9247 24.351C48.2855 24.8301 48.7964 25.4986 49.3999 26.2599C49.5982 26.5099 49.8079 26.7717 50.0267 27.0417L29.6667 27.0417L29.6667 31.9583L50.0267 31.9583Z" fill="#dfc8c8"/>
</svg>
