<?xml version="1.0" encoding="UTF-8" standalone="no"?>
<!-- Generator: Adobe Illustrator 23.0.3, SVG Export Plug-In . SVG Version: 6.00 Build 0)  -->

<svg
   version="1.1"
   id="Icons"
   x="0px"
   y="0px"
   viewBox="0 0 32 32"
   style="enable-background:new 0 0 32 32;"
   xml:space="preserve"
   sodipodi:docname="17066942891596026814.svg"
   inkscape:version="1.1.1 (3bf5ae0d25, 2021-09-20)"
   xmlns:inkscape="http://www.inkscape.org/namespaces/inkscape"
   xmlns:sodipodi="http://sodipodi.sourceforge.net/DTD/sodipodi-0.dtd"
   xmlns="http://www.w3.org/2000/svg"
   xmlns:svg="http://www.w3.org/2000/svg"><defs
   id="defs15" /><sodipodi:namedview
   id="namedview13"
   pagecolor="#505050"
   bordercolor="#ffffff"
   borderopacity="1"
   inkscape:pageshadow="0"
   inkscape:pageopacity="0"
   inkscape:pagecheckerboard="1"
   showgrid="false"
   inkscape:zoom="11.234375"
   inkscape:cx="22.876217"
   inkscape:cy="8.3226704"
   inkscape:window-width="1920"
   inkscape:window-height="1009"
   inkscape:window-x="-8"
   inkscape:window-y="-8"
   inkscape:window-maximized="1"
   inkscape:current-layer="Icons" />
<style
   type="text/css"
   id="style2">
	.st0{fill:none;stroke:#000000;stroke-width:2;stroke-linecap:round;stroke-linejoin:round;stroke-miterlimit:10;}
</style>
<polyline
   class="st0"
   points="23,12 23,18 29,18 23,12 15,12 15,30 29,30 29,18 "
   id="polyline4"
   style="stroke:#ffffff;stroke-opacity:1" />
<path
   class="st0"
   d="M20,6h-8V4c0-1.1,0.9-2,2-2h4c1.1,0,2,0.9,2,2V6z"
   id="path6"
   style="stroke:#ffffff;stroke-opacity:1" />
<path
   class="st0"
   d="M15,28h-5c-2.2,0-4-1.8-4-4V8c0-2.2,1.8-4,4-4h2"
   id="path8"
   style="stroke:#ffffff;stroke-opacity:1" />
<path
   class="st0"
   d="M20,4h2c2.2,0,4,1.8,4,4v7"
   id="path10"
   style="stroke:#ffffff;stroke-opacity:1" />
</svg>
