<svg width="96" height="90" viewBox="0 0 96 90" fill="none" xmlns="http://www.w3.org/2000/svg">
<path d="M31 3V75" stroke="white" stroke-width="6"/>
<path d="M3 57H61" stroke="white" stroke-width="6"/>
<path d="M59 57V3" stroke="white" stroke-width="6"/>
<path d="M3 21H87" stroke="white" stroke-width="6"/>
<path d="M87 39H3" stroke="white" stroke-width="6"/>
<path d="M75 51C65.0589 51 57 59.0589 57 69C57 78.9411 65.0589 87 75 87C84.9411 87 93 78.9411 93 69C93 59.0589 84.9411 51 75 51Z" stroke="white" stroke-width="6"/>
<path d="M77 69.8104V59C77 57.8954 76.1046 57 75 57C73.8954 57 73 57.8954 73 59V68L67.5896 72.2511C66.7192 72.9349 66.5855 74.2026 67.2942 75.053C67.9681 75.8618 69.1599 75.9953 69.9962 75.3558L76.8494 70.1152C76.9443 70.0426 77 69.9299 77 69.8104Z" fill="white"/>
<path d="M58 75H15C8.37258 75 3 69.6274 3 63V15C3 8.37258 8.37258 3 15 3H75C81.6274 3 87 8.37258 87 15V56" stroke="white" stroke-width="6"/>
</svg>
