<svg width="100" height="100" viewBox="0 0 100 100" fill="none" xmlns="http://www.w3.org/2000/svg">
<path fill-rule="evenodd" clip-rule="evenodd" d="M85.073 15H15.5002C14.0388 15 12.889 16.248 13.0085 17.7045L19.0097 90.818C19.4355 96.0063 23.7705 100 28.9761 100H71.597C76.8027 100 81.1376 96.0063 81.5635 90.818L87.5646 17.7045C87.6841 16.248 86.5343 15 85.073 15ZM41.0846 36.2117L38.781 36.3337C36.5749 36.4506 34.851 38.335 34.9304 40.5427L36.1167 73.5089C36.1961 75.7166 38.0489 77.4115 40.2549 77.2947L42.5585 77.1726C44.7646 77.0558 46.4885 75.1713 46.4091 72.9636L45.2228 39.9975C45.1434 37.7897 43.2906 36.0948 41.0846 36.2117ZM60.8593 36.2116L63.1629 36.3336C65.369 36.4505 67.0929 38.3349 67.0135 40.5427L65.8272 73.5088C65.7478 75.7165 63.895 77.4115 61.689 77.2946L59.3854 77.1726C57.1793 77.0557 55.4554 75.1713 55.5348 72.9636L56.7211 39.9974C56.8005 37.7897 58.6533 36.0947 60.8593 36.2116Z" fill="#C50000"/>
<path d="M88.5 9H11.5C10.1193 9 9 7.88071 9 6.5C9 5.11929 10.1193 4 11.5 4H38.1184C39.3068 4 40.3313 3.1642 40.57 2C40.8087 0.835798 41.8332 0 43.0216 0H56.0384C57.346 0 58.524 0.790156 59.02 2C59.516 3.20984 60.694 4 62.0016 4H88.5C89.8807 4 91 5.11929 91 6.5C91 7.88071 89.8807 9 88.5 9Z" fill="#C50000"/>
</svg>
