<svg id="eVpvGSAbUci1" xmlns="http://www.w3.org/2000/svg" xmlns:xlink="http://www.w3.org/1999/xlink" viewBox="0 0 400 400" shape-rendering="geometricPrecision" text-rendering="geometricPrecision">
<style><![CDATA[
#eVpvGSAbUci3_to {animation: eVpvGSAbUci3_to__to 1140ms linear infinite normal forwards}@keyframes eVpvGSAbUci3_to__to { 0% {transform: translate(281.175916px,358.313552px)} 5.263158% {transform: translate(281.175929px,367.844074px)} 10.526316% {transform: translate(281.175929px,372.844074px)} 15.789474% {transform: translate(281.175929px,370.844074px)} 26.315789% {transform: translate(281.175929px,370.844074px)} 31.578947% {transform: translate(279.175929px,378.844074px)} 36.842105% {transform: translate(258.452467px,378.844074px)} 42.105263% {transform: translate(229.422933px,378.844074px)} 47.368421% {transform: translate(189.06592px,378.844075px)} 52.631579% {transform: translate(173.577661px,378.844075px)} 73.684211% {transform: translate(173.577661px,378.844075px)} 78.947368% {transform: translate(173.577661px,378.320016px)} 84.210526% {transform: translate(205.040154px,369.747801px)} 89.473684% {transform: translate(262.285695px,362.62999px)} 94.736842% {transform: translate(281.175916px,356.234865px)} 100% {transform: translate(281.175916px,356.234865px)}} #eVpvGSAbUci3_tr {animation: eVpvGSAbUci3_tr__tr 1140ms linear infinite normal forwards}@keyframes eVpvGSAbUci3_tr__tr { 0% {transform: rotate(-22.125193deg)} 10.526316% {transform: rotate(-15.495653deg)} 15.789474% {transform: rotate(-19.275002deg)} 26.315789% {transform: rotate(-19.275002deg)} 31.578947% {transform: rotate(0deg)} 73.684211% {transform: rotate(0deg)} 78.947368% {transform: rotate(0deg)} 84.210526% {transform: rotate(22.800993deg)} 89.473684% {transform: rotate(20.831391deg)} 94.736842% {transform: rotate(-18.561072deg)} 100% {transform: rotate(-18.561072deg)}} #eVpvGSAbUci4_to {animation: eVpvGSAbUci4_to__to 1140ms linear infinite normal forwards}@keyframes eVpvGSAbUci4_to__to { 0% {offset-distance: 0%} 5.263158% {offset-distance: 0.998122%} 31.578947% {offset-distance: 1.056136%} 36.842105% {offset-distance: 11.684521%} 42.105263% {offset-distance: 35.907901%} 47.368421% {offset-distance: 47.323347%} 52.631579% {offset-distance: 55.340749%} 57.894737% {offset-distance: 55.938943%} 63.157895% {offset-distance: 56.210065%} 68.421053% {offset-distance: 57.165241%} 73.684211% {offset-distance: 58.3183%} 78.947368% {offset-distance: 59.402249%} 84.210526% {offset-distance: 65.738596%} 89.473684% {offset-distance: 85.320272%} 94.736842% {offset-distance: 100%} 100% {offset-distance: 100%}} #eVpvGSAbUci4_tr {animation: eVpvGSAbUci4_tr__tr 1140ms linear infinite normal forwards}@keyframes eVpvGSAbUci4_tr__tr { 0% {transform: rotate(0deg)} 31.578947% {transform: rotate(0deg)} 36.842105% {transform: rotate(43.732742deg)} 47.368421% {transform: rotate(-19.247746deg)} 52.631579% {transform: rotate(-31.771507deg)} 57.894737% {transform: rotate(-25.556987deg)} 63.157895% {transform: rotate(-28.830481deg)} 78.947368% {transform: rotate(0deg)} 100% {transform: rotate(0deg)}} #eVpvGSAbUci5_to {animation: eVpvGSAbUci5_to__to 1140ms linear infinite normal forwards}@keyframes eVpvGSAbUci5_to__to { 0% {transform: translate(208.608493px,287.886139px)} 5.263158% {transform: translate(206.608493px,287.886139px)} 10.526316% {transform: translate(206.608493px,285.886139px)} 21.052632% {transform: translate(208.608493px,283.886139px)} 26.315789% {transform: translate(208.608493px,285.886139px)} 31.578947% {transform: translate(211.608493px,282.886139px)} 36.842105% {transform: translate(216.608493px,279.886139px)} 42.105263% {transform: translate(222.608493px,279.886139px)} 47.368421% {transform: translate(226.608493px,281.886139px)} 52.631579% {transform: translate(228.608493px,288.886139px)} 57.894737% {transform: translate(228.608493px,285.886139px)} 63.157895% {transform: translate(228.608493px,283.886139px)} 68.421053% {transform: translate(226.608493px,285.886139px)} 73.684211% {transform: translate(224.608493px,289.886139px)} 78.947368% {transform: translate(223.608493px,286.886139px)} 84.210526% {transform: translate(217.608493px,280.886139px)} 89.473684% {transform: translate(211.608493px,281.886139px)} 94.736842% {transform: translate(210.608493px,285.886139px)} 100% {transform: translate(210.608493px,285.886139px)}} #eVpvGSAbUci5_tr {animation: eVpvGSAbUci5_tr__tr 1140ms linear infinite normal forwards}@keyframes eVpvGSAbUci5_tr__tr { 0% {transform: rotate(-10.532348deg)} 5.263158% {transform: rotate(-11.434253deg)} 15.789474% {transform: rotate(-9.249517deg)} 21.052632% {transform: rotate(-8.787324deg)} 26.315789% {transform: rotate(-7.932685deg)} 31.578947% {transform: rotate(-6.270396deg)} 36.842105% {transform: rotate(-3.334739deg)} 42.105263% {transform: rotate(-1.253117deg)} 47.368421% {transform: rotate(1.587457deg)} 57.894737% {transform: rotate(2.487219deg)} 63.157895% {transform: rotate(1.830763deg)} 68.421053% {transform: rotate(0.867431deg)} 73.684211% {transform: rotate(0.867431deg)} 78.947368% {transform: rotate(0.136087deg)} 84.210526% {transform: rotate(-1.102384deg)} 89.473684% {transform: rotate(-3.623793deg)} 94.736842% {transform: rotate(-9.442222deg)} 100% {transform: rotate(-9.442222deg)}} #eVpvGSAbUci8_ts {animation: eVpvGSAbUci8_ts__ts 1140ms linear infinite normal forwards}@keyframes eVpvGSAbUci8_ts__ts { 0% {transform: translate(210.282721px,399.683505px) scale(0.773375,0.70913)} 31.578947% {transform: translate(210.282721px,399.683505px) scale(0.773375,0.70913)} 42.105263% {transform: translate(210.282721px,399.683505px) scale(0.645554,0.70913)} 52.631579% {transform: translate(210.282721px,399.683505px) scale(0.773375,0.70913)} 78.947368% {transform: translate(210.282721px,399.683505px) scale(0.773375,0.70913)} 86.842105% {transform: translate(210.282721px,399.683505px) scale(0.645554,0.70913)} 94.736842% {transform: translate(210.282721px,399.683505px) scale(0.773375,0.70913)} 100% {transform: translate(210.282721px,399.683505px) scale(0.773375,0.70913)}}
]]></style>
<g transform="translate(-.167593-18.424623)"><g id="eVpvGSAbUci3_to" transform="translate(281.175916,358.313552)"><g id="eVpvGSAbUci3_tr" transform="rotate(-22.125193)"><path d="M0,12.4206C0,5.560892,5.310707,-0.549798,12.4206,0c5.744839.701319,14.392184.999783,23.065394.971732C44.084244,0.943923,52.707912,0.595219,58.5543,0c6.772222-.655365,12.4206,5.560892,12.4206,12.4206s-5.755321,11.94586-12.4206,12.4206c-6.046798.490492-14.523627.798301-22.933467.838335-8.740049.041607-17.407745-.206001-23.200233-.838335C5.148166,24.253034,0,19.280308,0,12.4206Z" transform="translate(-35.487444,-12.4206)" fill="#484866"/></g></g><g id="eVpvGSAbUci4_to" style="offset-path:path('M173.494073,378.583904L171.494073,378.583904L171.494073,378.467658L185.12793,362.107031L233.276523,355.971735L256.149514,356.169865L261.01179,371.481351L261.01179,372.67999L261.232697,372.183667C261.232697,373.707563,261.0118,372.968299,261.0118,374.07258Q261.0118,376.937491,261.0118,376.226282L260.989601,378.398145L248.293064,378.403484L209.056026,378.403494L179.641884,378.583904');offset-rotate:0deg"><g id="eVpvGSAbUci4_tr" transform="rotate(0)"><path d="M0,12.4206C0,5.560892,5.560892,0,12.4206,0c0,0,13.576716,0,25.999802,0C48.897621,0,58.5543,0,58.5543,0c6.859708,0,12.4206,5.560892,12.4206,12.4206s-5.560892,12.4206-12.4206,12.4206c0,0-20.312501.000011-20.312501.000011s-25.821199-.000011-25.821199-.000011C5.560892,24.8412,0,19.280308,0,12.4206Z" transform="translate(-25.328914,-12.500342)" fill="#484866"/></g></g><g id="eVpvGSAbUci5_to" transform="translate(208.608493,287.886139)"><g id="eVpvGSAbUci5_tr" transform="rotate(-10.532348)"><g transform="translate(-192.695385,-285.036591)"><path d="M49,162.096c-5.8517-5.56-7.9108-9.615-10.2472-16.148-1.4711-4.113,2.85-8.075,6.9399-6.54c71.2333,26.726,101.0053-3.511,118.4523-25.397c18.295-22.9504-8.162-69.9098,11.356-96.8803c20.922-28.9115,71.999-16.08578,82.999.9144c16.642,25.7198,26.302,26.0601,36.238,26.0601c9.937,0,13.841,14.9048-1.419,13.4814-39.133-3.6503-58.417,20.7011-56.78,32.2975C240.797,120.048,332,269.801,157.402,288.61C47.3344,300.466,12.2382,224.559,2.27542,177.247c-.95265-4.524,4.4366-7.438,8.65298-5.541c5.4491,2.451,8.7692,1.578,18.0716,7.89-7.8735-8.821-15.2042-19.633-21.01505-29.553-2.51949-4.3,2.18615-8.645,6.44765-6.06C26.2672,151.163,40.555,159.394,49,162.096Z" transform="translate(47.17607 53.729343)" fill="#484866"/><path d="M245.415,38.8818c-6.229-11.3886-21.499-10.9952-27.778-.0494-.399.6945-.194,1.5658.431,2.066.776.6204,1.911.4488,2.543-.3179c6.594-8.0071,16.006-8.0476,21.836-.1217.596.8103,1.752,1.0261,2.537.3977.597-.4772.798-1.3045.431-1.9747Z" transform="translate(47.176072 53.729342)" fill="#fff"/></g></g></g><g id="eVpvGSAbUci8_ts" transform="translate(210.282721,399.683505) scale(0.773375,0.70913)"><rect width="269.770294" height="21.15268" rx="12.68" ry="12.68" transform="translate(-134.885147,-12.68473)" fill="#323257" stroke-width="0"/></g></g></svg>
