<svg xmlns="http://www.w3.org/2000/svg" id="ex0c5QYmMwU1" shape-rendering="geometricPrecision" text-rendering="geometricPrecision" viewBox="0 0 400 445">
  <style>
    @keyframes ex0c5QYmMwU2_to__to{0%{transform:translate(281.175916px,358.313552px)}5.263158%{transform:translate(281.175929px,367.844074px)}10.526316%{transform:translate(281.175929px,372.844074px)}15.789474%,26.315789%{transform:translate(281.175929px,370.844074px)}31.578947%{transform:translate(279.175929px,378.844074px)}36.842105%{transform:translate(258.452467px,378.844074px)}42.105263%{transform:translate(229.422933px,378.844074px)}47.368421%{transform:translate(189.06592px,378.844075px)}52.631579%,73.684211%{transform:translate(173.577661px,378.844075px)}78.947368%{transform:translate(173.577661px,378.320016px)}84.210526%{transform:translate(205.040154px,369.747801px)}89.473684%{transform:translate(262.285695px,362.62999px)}94.736842%,to{transform:translate(281.175916px,356.234865px)}}@keyframes ex0c5QYmMwU2_tr__tr{0%{transform:rotate(-22.125193deg)}10.526316%{transform:rotate(-15.495653deg)}15.789474%,26.315789%{transform:rotate(-19.275002deg)}31.578947%,73.684211%,78.947368%{transform:rotate(0deg)}84.210526%{transform:rotate(22.800993deg)}89.473684%{transform:rotate(20.831391deg)}94.736842%,to{transform:rotate(-18.561072deg)}}@keyframes ex0c5QYmMwU3_to__to{0%{transform:translate(173.494073px,378.583904px)}5.263158%{transform:translate(171.494073px,378.583904px)}31.578947%{transform:translate(171.494073px,378.467658px)}36.842105%{transform:translate(185.12793px,362.107031px)}42.105263%{transform:translate(233.276523px,355.088153px)}47.368421%{transform:translate(256.149514px,354.549965px)}52.631579%{transform:translate(261.01179px,375.104125px)}57.894737%{transform:translate(261.01179px,375.542385px)}63.157895%,73.684211%{transform:translate(261.0118px,375.489964px)}78.947368%{transform:translate(271.118117px,378.403484px)}84.210526%{transform:translate(248.293064px,378.403484px)}89.473684%{transform:translate(209.056026px,378.403494px)}94.736842%,to{transform:translate(179.641884px,378.583904px)}}@keyframes ex0c5QYmMwU3_tr__tr{0%,31.578947%,78.947368%,to{transform:rotate(0deg)}36.842105%{transform:rotate(43.732742deg)}47.368421%{transform:rotate(-19.247746deg)}52.631579%{transform:rotate(-31.771507deg)}57.894737%{transform:rotate(-25.556987deg)}63.157895%{transform:rotate(-28.830481deg)}}@keyframes ex0c5QYmMwU4_to__to{0%{transform:translate(208.608493px,287.886139px)}5.263158%{transform:translate(206.608493px,287.886139px)}10.526316%{transform:translate(206.608493px,285.886139px)}21.052632%{transform:translate(208.608493px,283.886139px)}26.315789%{transform:translate(208.608493px,285.886139px)}31.578947%{transform:translate(211.608493px,282.886139px)}36.842105%{transform:translate(216.608493px,279.886139px)}42.105263%{transform:translate(222.608493px,279.886139px)}47.368421%{transform:translate(226.608493px,281.886139px)}52.631579%{transform:translate(228.608493px,288.886139px)}57.894737%{transform:translate(228.608493px,285.886139px)}63.157895%{transform:translate(228.608493px,283.886139px)}68.421053%{transform:translate(226.608493px,285.886139px)}73.684211%{transform:translate(224.608493px,289.886139px)}78.947368%{transform:translate(223.608493px,286.886139px)}84.210526%{transform:translate(217.608493px,280.886139px)}89.473684%{transform:translate(211.608493px,281.886139px)}94.736842%,to{transform:translate(210.608493px,285.886139px)}}@keyframes ex0c5QYmMwU4_tr__tr{0%{transform:rotate(-10.532348deg)}5.263158%{transform:rotate(-11.434253deg)}15.789474%{transform:rotate(-9.249517deg)}21.052632%{transform:rotate(-8.787324deg)}26.315789%{transform:rotate(-7.932685deg)}31.578947%{transform:rotate(-6.270396deg)}36.842105%{transform:rotate(-3.334739deg)}42.105263%{transform:rotate(-1.253117deg)}47.368421%{transform:rotate(1.587457deg)}57.894737%{transform:rotate(2.487219deg)}63.157895%{transform:rotate(1.830763deg)}68.421053%,73.684211%{transform:rotate(.867431deg)}78.947368%{transform:rotate(.136087deg)}84.210526%{transform:rotate(-1.102384deg)}89.473684%{transform:rotate(-3.623793deg)}94.736842%,to{transform:rotate(-9.442222deg)}}@keyframes ex0c5QYmMwU7_ts__ts{0%,31.578947%,52.631579%,78.947368%,94.736842%,to{transform:translate(210.282721px,399.683505px) scale(.773375,.70913)}42.105263%,86.842105%{transform:translate(210.282721px,399.683505px) scale(.645554,.70913)}}
  </style>
  <g style="animation:ex0c5QYmMwU2_to__to 1140ms linear infinite normal forwards" transform="translate(281 358)">
    <g style="animation:ex0c5QYmMwU2_tr__tr 1140ms linear infinite normal forwards" transform="rotate(-22)">
      <path fill="#484866" d="M-35 0c0-7 5-13 12-12a207 207 0 0 0 46 0c7-1 12 5 12 12s-5 12-12 12a325 325 0 0 1-46 0c-7 0-12-5-12-12Z"></path>
    </g>
  </g>
  <g style="animation:ex0c5QYmMwU3_to__to 1140ms linear infinite normal forwards" transform="translate(173 379)">
    <g style="animation:ex0c5QYmMwU3_tr__tr 1140ms linear infinite normal forwards">
      <path fill="#484866" d="M-35 0c0-7 5-13 12-13h46a12 12 0 1 1 0 25h-46c-7 0-12-5-12-12Z"></path>
    </g>
  </g>
  <g style="animation:ex0c5QYmMwU4_to__to 1140ms linear infinite normal forwards" transform="translate(209 288)">
    <g style="animation:ex0c5QYmMwU4_tr__tr 1140ms linear infinite normal forwards" transform="rotate(-11)">
      <g transform="translate(-193 -285)">
        <path fill="#484866" d="M96 216c-6-6-8-10-10-16-2-4 3-8 7-7 71 27 101-3 118-25 19-23-8-70 12-97 21-29 72-16 83 1 16 25 26 26 36 26s14 15-2 13c-39-3-58 21-56 33 4 30 95 180-79 198C95 354 59 278 49 231c-1-5 5-7 9-6 6 3 9 2 18 8-8-8-15-19-21-29-2-5 2-9 7-6 11 7 26 15 34 18Z"></path>
        <path fill="#fff" d="M293 93c-7-12-22-11-28 0v2l3-1c6-8 16-8 22 0l2 1 1-2Z"></path>
      </g>
    </g>
  </g>
  <g style="animation:ex0c5QYmMwU7_ts__ts 1140ms linear infinite normal forwards" transform="rotate(39 928 1764)">
    <rect width="269.8" height="21.2" fill="#323257" stroke-width="0" rx="12.7" ry="12.7" transform="translate(-135 -13)"></rect>
  </g>
</svg>